name GIL11_xslow1.mot
datacolumns 153
datarows 4
range 1.33333325 1.35833335
endheader

                time	           pelvis_tx	           pelvis_ty	           pelvis_tz	         pelvis_tilt	         pelvis_list	     pelvis_rotation	       hip_flexion_r	     hip_adduction_r	      hip_rotation_r	        knee_angle_r	       ankle_angle_r	    subtalar_angle_r	         mtp_angle_r	       hip_flexion_l	     hip_adduction_l	      hip_rotation_l	        knee_angle_l	       ankle_angle_l	    subtalar_angle_l	         mtp_angle_l	    lumbar_extension	      lumbar_bending	     lumbar_rotation	     ground_force_vx	     ground_force_vy	     ground_force_vz	     ground_force_px	     ground_force_py	     ground_force_pz	     ground_force_vx	     ground_force_vy	     ground_force_vz	     ground_force_px	     ground_force_py	     ground_force_pz	     ground_torque_x	     ground_torque_y	     ground_torque_z	     ground_torque_x	     ground_torque_y	     ground_torque_z	    ground_marker_px	    ground_marker_py	    ground_marker_pz	    ground_marker_px	    ground_marker_py	    ground_marker_pz	    ground_marker_px	    ground_marker_py	    ground_marker_pz	    ground_marker_px	    ground_marker_py	    ground_marker_pz	    ground_marker_px	    ground_marker_py	    ground_marker_pz	    ground_marker_px	    ground_marker_py	    ground_marker_pz	    ground_marker_px	    ground_marker_py	    ground_marker_pz	    ground_marker_px	    ground_marker_py	    ground_marker_pz	    ground_marker_px	    ground_marker_py	    ground_marker_pz	    ground_marker_px	    ground_marker_py	    ground_marker_pz	    ground_marker_px	    ground_marker_py	    ground_marker_pz	    ground_marker_px	    ground_marker_py	    ground_marker_pz	    ground_marker_px	    ground_marker_py	    ground_marker_pz	    ground_marker_px	    ground_marker_py	    ground_marker_pz	    ground_marker_px	    ground_marker_py	    ground_marker_pz	    ground_marker_px	    ground_marker_py	    ground_marker_pz	    ground_marker_px	    ground_marker_py	    ground_marker_pz	    ground_marker_px	    ground_marker_py	    ground_marker_pz	    ground_marker_px	    ground_marker_py	    ground_marker_pz	    ground_marker_px	    ground_marker_py	    ground_marker_pz	    ground_marker_px	    ground_marker_py	    ground_marker_pz	    ground_marker_px	    ground_marker_py	    ground_marker_pz	    ground_marker_px	    ground_marker_py	    ground_marker_pz	    ground_marker_px	    ground_marker_py	    ground_marker_pz	    ground_marker_px	    ground_marker_py	    ground_marker_pz	    ground_marker_px	    ground_marker_py	    ground_marker_pz	    ground_marker_px	    ground_marker_py	    ground_marker_pz	    ground_marker_px	    ground_marker_py	    ground_marker_pz	    ground_marker_px	    ground_marker_py	    ground_marker_pz	    ground_marker_px	    ground_marker_py	    ground_marker_pz	    ground_marker_px	    ground_marker_py	    ground_marker_pz	    ground_marker_px	    ground_marker_py	    ground_marker_pz	    ground_marker_px	    ground_marker_py	    ground_marker_pz	    ground_marker_px	    ground_marker_py	    ground_marker_pz	    ground_marker_px	    ground_marker_py	    ground_marker_pz	    ground_marker_px	    ground_marker_py	    ground_marker_pz	    ground_marker_px	    ground_marker_py	    ground_marker_pz	
          1.33333325	          0.79304647	          0.88297486	         -0.22339442	         -4.76109695	          2.36920452	          1.71588647	          4.84753227	          2.02337623	          3.02068901	         -3.07904696	          4.36523724	          0.00000000	          0.00000000	         21.39490891	         -4.73248863	         13.82546902	        -41.58833313	          4.79691458	          0.00000000	          0.00000000	         -6.45597839	         -4.91078472	          1.76689053	          1.49169151	        600.99166882	        -14.04099745	          0.71491730	          0.00000000	         -0.18991940	          0.00000000	          0.00000000	          0.00000000	          0.39305402	          0.00000000	         -0.36255371	          0.00000000	          0.05037952	          0.00000000	          0.00000000	          0.00000000	          0.00000000	          0.71855849	          0.83181560	         -0.21798339	          0.70590037	          0.80604273	         -0.14952342	          0.69835472	          0.81325895	         -0.30129230	          0.70631385	          0.44174451	         -0.18003660	          0.81120640	          0.43603843	         -0.35421109	          0.68638527	          0.06445719	         -0.21086232	          0.65300608	          0.12065648	         -0.34480202	          0.79304647	          0.88297486	         -0.22339442	          0.79503918	          0.87724239	         -0.10461806	          0.79105371	          0.88870734	         -0.34217077	          0.59628820	          0.94496810	         -0.18738322	          0.59296906	          0.93973213	         -0.24164847	          0.71034318	          0.43691972	         -0.12237825	          0.82221240	          0.44716576	         -0.41005954	          0.70429289	          0.44482806	         -0.22686398	          0.84172720	          0.44193533	         -0.29397976	          0.66959679	          0.06238246	         -0.17461535	          0.63653606	          0.12785198	         -0.38053665	          0.69855183	          0.07589967	         -0.24258387	          0.66803771	          0.12697352	         -0.32226595	          0.68080580	          1.38660181	         -0.20535597	          0.80322438	          1.31626368	         -0.16435812	          0.79656816	          1.31307006	         -0.26977015	          0.79612720	          1.31174517	         -0.21623819	          0.83076555	          1.23951519	         -0.22003458	          0.86701769	          0.57545078	         -0.18486840	          0.83296257	          0.59498167	         -0.48146459	          0.80523092	          0.62494832	         -0.12367409	          0.76010144	          0.61577451	         -0.41940883	          0.79058343	          0.53833151	         -0.12763329	          0.79498619	          0.53538525	         -0.41795948	          0.66013908	          0.13523789	         -0.09768029	          0.79269314	          0.19180222	         -0.35251802	          0.66477013	          0.14739734	         -0.13975957	          0.75416583	          0.20938997	         -0.35471761	          0.78242743	          0.03904018	         -0.17784603	          0.73516530	          0.06524463	         -0.38105643	
          1.34166670	          0.79672664	          0.88280785	         -0.22284022	         -4.81220818	          2.51977730	          1.62963867	          4.67089653	          1.95593894	          3.03121066	         -3.13845491	          4.57146645	          0.00000000	          0.00000000	         21.90523148	         -4.55206919	         14.06918716	        -39.83460236	          4.98096275	          0.00000000	          0.00000000	         -6.52515364	         -4.91874027	          1.59339714	          1.06410216	        601.80070469	        -14.42732813	          0.71782025	          0.00000000	         -0.18937086	          0.00000000	          0.00000000	          0.00000000	          0.39399030	          0.00000000	         -0.36236130	          0.00000000	          0.11918250	          0.00000000	          0.00000000	          0.00000000	          0.00000000	          0.72222304	          0.83189678	         -0.21776438	          0.70934498	          0.80580574	         -0.14932133	          0.70214003	          0.81334496	         -0.30109107	          0.70835811	          0.44158986	         -0.18014249	          0.81815696	          0.43703514	         -0.35329875	          0.68659729	          0.06436650	         -0.21110493	          0.67154080	          0.11590207	         -0.34488177	          0.79672664	          0.88280785	         -0.22284022	          0.79845285	          0.87682545	         -0.10405318	          0.79500043	          0.88879031	         -0.34162727	          0.59990698	          0.94497889	         -0.18732330	          0.59668493	          0.93977773	         -0.24158759	          0.71226048	          0.43669981	         -0.12248091	          0.82950383	          0.44826916	         -0.40905759	          0.70703721	          0.44502580	         -0.22698639	          0.84851635	          0.44423136	         -0.29213792	          0.66980290	          0.06236008	         -0.17485683	          0.65439862	          0.12279864	         -0.38035828	          0.69816738	          0.07624738	         -0.24302275	          0.68652743	          0.12222404	         -0.32215720	          0.68500626	          1.38675213	         -0.20493585	          0.80726123	          1.31613469	         -0.16341329	          0.80112302	          1.31309175	         -0.26906660	          0.80030149	          1.31160700	         -0.21565570	          0.83498752	          1.23942935	         -0.21916066	          0.86974859	          0.57471621	         -0.18456881	          0.83986086	          0.59602600	         -0.48056397	          0.80792868	          0.62456709	         -0.12302627	          0.76617968	          0.61651844	         -0.41951418	          0.79333538	          0.53825462	         -0.12734151	          0.80212152	          0.53621250	         -0.41718328	          0.66076177	          0.13530698	         -0.09807111	          0.80857772	          0.19199906	         -0.35358056	          0.66495019	          0.14752398	         -0.13968456	          0.76919770	          0.20785673	         -0.35546413	          0.78254414	          0.03882227	         -0.17788164	          0.75514120	          0.06422321	         -0.38313282	
          1.35000014	          0.80048150	          0.88261831	         -0.22234094	         -4.85198784	          2.65271521	          1.51914120	          4.46703339	          1.90011942	          3.06262589	         -3.18256211	          4.73819494	          0.00000000	          0.00000000	         22.37328339	         -4.38861084	         14.18555832	        -38.05932617	          5.10997486	          0.00000000	          0.00000000	         -6.45192242	         -5.12745047	          1.49192548	          0.33493853	        603.49900603	        -14.49913829	          0.72089612	          0.00000000	         -0.18879881	          0.00000000	          0.00000000	          0.00000000	          0.39492108	          0.00000000	         -0.36212817	          0.00000000	          0.21701868	          0.00000000	          0.00000000	          0.00000000	          0.00000000	          0.72572184	          0.83167994	         -0.21784745	          0.71285510	          0.80556256	         -0.14917029	          0.70603794	          0.81335968	         -0.30094492	          0.71036690	          0.44142845	         -0.18022457	          0.82498187	          0.43798980	         -0.35233319	          0.68676412	          0.06435279	         -0.21138233	          0.69023883	          0.11135708	         -0.34496456	          0.80048150	          0.88261831	         -0.22234094	          0.80190444	          0.87643582	         -0.10353550	          0.79905856	          0.88880074	         -0.34114638	          0.60360467	          0.94492513	         -0.18725970	          0.60041928	          0.93978053	         -0.24157879	          0.71414536	          0.43648481	         -0.12255930	          0.83656669	          0.44928569	         -0.40803051	          0.70885879	          0.44544372	         -0.22724159	          0.85582530	          0.44547322	         -0.29135242	          0.66997862	          0.06240767	         -0.17512679	          0.67244989	          0.11790079	         -0.38018858	          0.69849837	          0.07585954	         -0.24341395	          0.70545971	          0.11761360	         -0.32226959	          0.68859160	          1.38693440	         -0.20446795	          0.81120455	          1.31615639	         -0.16285008	          0.80543727	          1.31286561	         -0.26879615	          0.80452144	          1.31145287	         -0.21512441	          0.83916467	          1.23933649	         -0.21846360	          0.87251365	          0.57397884	         -0.18428445	          0.84639883	          0.59691328	         -0.47968316	          0.81133068	          0.62367451	         -0.12271276	          0.77215445	          0.61696756	         -0.41893464	          0.79604441	          0.53764576	         -0.12733321	          0.80895913	          0.53704780	         -0.41651729	          0.66140294	          0.13540626	         -0.09854254	          0.82449591	          0.19238633	         -0.35457173	          0.66572714	          0.14743228	         -0.14025155	          0.78436631	          0.20668805	         -0.35624668	          0.78263181	          0.03858806	         -0.17789720	          0.77516955	          0.06336661	         -0.38508427	
          1.35833335	          0.80430645	          0.88241768	         -0.22189370	         -4.87642479	          2.76917672	          1.38672113	          4.23166466	          1.85451639	          3.10901785	         -3.21024585	          4.86154032	          0.00000000	          0.00000000	         22.79989624	         -4.23704767	         14.15628624	        -36.29120255	          5.17827606	          0.00000000	          0.00000000	         -6.41963339	         -5.24312830	          1.68470311	         -0.25685590	        605.80436573	        -14.22325754	          0.72400305	          0.00000000	         -0.18822499	          0.00000000	          0.00000000	          0.00000000	          0.39583569	          0.00000000	         -0.36185297	          0.00000000	          0.35006848	          0.00000000	          0.00000000	          0.00000000	          0.00000000	          0.72885168	          0.83087945	         -0.21805662	          0.71643436	          0.80531585	         -0.14906695	          0.71004641	          0.81331009	         -0.30085000	          0.71234143	          0.44126046	         -0.18028431	          0.83171272	          0.43890092	         -0.35129446	          0.68689555	          0.06441285	         -0.21167555	          0.70905161	          0.10707607	         -0.34506425	          0.80430645	          0.88241768	         -0.22189370	          0.80539376	          0.87608141	         -0.10306294	          0.80321914	          0.88875389	         -0.34072447	          0.60737705	          0.94479853	         -0.18718328	          0.60418087	          0.93973517	         -0.24161384	          0.71599525	          0.43627429	         -0.12261466	          0.84341466	          0.45020419	         -0.40696582	          0.71253347	          0.44464934	         -0.22847182	          0.86241341	          0.44612885	         -0.29066509	          0.67011678	          0.06252522	         -0.17541386	          0.69066995	          0.11321396	         -0.38005626	          0.69925326	          0.07533167	         -0.24363650	          0.72443014	          0.11337605	         -0.32269216	          0.69291168	          1.38672733	         -0.20385993	          0.81526411	          1.31604993	         -0.16267522	          0.80942029	          1.31275976	         -0.26836219	          0.80878073	          1.31126487	         -0.21463932	          0.84315711	          1.23921919	         -0.21817856	          0.87529862	          0.57323325	         -0.18400274	          0.85255009	          0.59762758	         -0.47884488	          0.81427735	          0.62272525	         -0.12278747	          0.77765822	          0.61737823	         -0.41796216	          0.79915702	          0.53649259	         -0.12785578	          0.81512421	          0.53761441	         -0.41567907	          0.66200954	          0.13551818	         -0.09906048	          0.84040999	          0.19297138	         -0.35542837	          0.66691697	          0.14746472	         -0.14087225	          0.80023092	          0.20592110	         -0.35686550	          0.78268403	          0.03833747	         -0.17790303	          0.79523563	          0.06268525	         -0.38685182	
